<svg class="canvas" viewBox="0 0 1920 1080" preserveAspectRatio="xMaxYMid slice" xmlns="http://www.w3.org/2000/svg" version="1.1" xmlns:xlink="http://www.w3.org/1999/xlink" xmlns:svgjs="http://svgjs.com/svgjs"><rect width="1920" height="1080" fill="hsl(188, 65%, 15%)"></rect><defs><linearGradient x1="0.5" y1="0" x2="0" y2="1" id="SvgjsLinearGradient1000"><stop stop-color="#288a84" offset="0"></stop><stop stop-color="#060714" offset="0.1"></stop></linearGradient><linearGradient x1="0.5" y1="0" x2="0" y2="1" id="SvgjsLinearGradient1001"><stop stop-color="#288a84" offset="0"></stop><stop stop-color="#060714" offset="0.22857142857142856"></stop></linearGradient><linearGradient x1="0.5" y1="0" x2="0" y2="1" id="SvgjsLinearGradient1002"><stop stop-color="#288a84" offset="0"></stop><stop stop-color="#060714" offset="0.3571428571428571"></stop></linearGradient><linearGradient x1="0.5" y1="0" x2="0" y2="1" id="SvgjsLinearGradient1003"><stop stop-color="#c0f2e4" offset="0"></stop><stop stop-color="#4269d7" offset="0.48571428571428565"></stop></linearGradient><linearGradient x1="0.5" y1="0" x2="0" y2="1" id="SvgjsLinearGradient1004"><stop stop-color="#c0ebf2" offset="0"></stop><stop stop-color="#5642d7" offset="0.6142857142857142"></stop></linearGradient><linearGradient x1="0.5" y1="0" x2="0" y2="1" id="SvgjsLinearGradient1005"><stop stop-color="#c0ebf2" offset="0"></stop><stop stop-color="#5642d7" offset="0.7428571428571429"></stop></linearGradient><linearGradient x1="0.5" y1="0" x2="0" y2="1" id="SvgjsLinearGradient1006"><stop stop-color="#c0d7f2" offset="0"></stop><stop stop-color="#9142d7" offset="0.8714285714285713"></stop></linearGradient></defs><path d="M0,-554.6294848958433C72.91925563838464,-540.63251121952,271.1862329003391,-526.0513444883762,437.51553383030785,-470.64764283790305C603.8448347602766,-415.24394118742987,834.9815079515226,-278.1651172038607,997.9758055798123,-222.20727499300432C1160.970103208102,-166.24943278214795,1261.8106205300148,-169.49688792229165,1415.4813196000462,-134.90058957276483C1569.1520186700775,-100.30429122323801,1835.9135532666744,-34.67466900866363,1920,-14.62948489584339L 1920 1080 L 0 1080 Z" fill="url(#SvgjsLinearGradient1000)"></path><path d="M0,-452.27555379542775C36.46246009215391,-445.23343554587035,128.19768375588205,-436.04285335451493,218.77476055292345,-410.0228442980834C309.35183734996485,-384.00283524165184,443.3752158628688,-338.4000407047995,543.4624607822483,-296.15549945683847C643.5497057016278,-253.91095820887745,721.7715664235952,-184.65596272110696,819.2982300692004,-156.55559681031727C916.8248937148055,-128.45523089952758,1043.4018020309238,-146.14764957686432,1128.6224426558788,-127.55330399210024C1213.8430832808338,-108.95895840733616,1249.472118138597,-69.96156764275767,1330.6220738189304,-44.98952330173274C1411.772029499264,-20.017478960707802,1517.2925223743684,-2.2209852446205183,1615.52217673788,22.278962054049366C1713.7518311013916,46.77890935271925,1869.25369612298,88.72162741758038,1920,102.01016049028658L 1920 1080 L 0 1080 Z" fill="url(#SvgjsLinearGradient1001)"></path><path d="M0,-328.64869381812747C34.205126019021456,-316.3067385387972,126.0683253831224,-282.8924095455662,205.23075611412872,-254.5969621421461C284.39318684513506,-226.301514738726,384.58017906363403,-176.77183190859532,474.974584386038,-158.8760093976069C565.3689897084419,-140.9801868866185,665.6572296459739,-166.38988923300997,747.5971880485524,-147.22202707621568C829.537146451131,-128.0541649194214,887.3790079458698,-71.22032557194106,966.6143348015095,-43.86883645684115C1045.8496616571492,-16.517347341741242,1145.9368317123751,-1.2937631541336394,1223.0091491823905,16.886907614383777C1300.0814666524059,35.06757838290119,1358.0459589004824,44.32232741375738,1429.0482396216019,65.21518815426334C1500.0505203427213,86.10804889476931,1567.1975401127067,113.12614762424663,1649.0228335091065,142.2440720574196C1730.8481269055062,171.36199649059256,1874.8371389181843,223.64295763732088,1920,239.92273475330114L 1920 1080 L 0 1080 Z" fill="url(#SvgjsLinearGradient1002)"></path><path d="M0,-181.9587676470487C58.687674982602566,-157.72195661268316,218.84609473257183,-74.09351841077209,352.1260498956154,-36.53790144085557C485.40600505865893,1.0177155290609505,663.6978732016354,15.539734333075057,799.6797309782613,43.374934172450445C935.6615887548872,71.21013401182583,1038.861881999788,94.72325985025581,1168.017196555371,130.47329759539676C1297.1725111109538,166.2233353405377,1449.2811510709873,212.80431437417988,1574.6116183117588,257.8751606432961C1699.9420855525302,302.9460069124124,1862.4352697186264,377.06117278229453,1920,400.89837521009423L 1920 1080 L 0 1080 Z" fill="url(#SvgjsLinearGradient1003)"></path><path d="M0,-1.4085316140375141C51.55513307346988,13.940081569060297,207.22961588218112,62.659587886113584,309.3307984408193,90.68314748454935C411.4319809994575,118.70670708298512,501.3129381565398,123.13356463318698,612.6070953518291,166.73282597657706C723.9012525471184,210.33208731996714,861.486181259216,311.62801295088565,977.095741612555,352.2787155448899C1092.705301965894,392.92941813889416,1205.5043343935426,395.19952563336113,1306.2644574718636,410.63704154060247C1407.0245805501845,426.0745574478438,1479.3672229944577,414.05426365696843,1581.6564800824806,444.90381098833797C1683.9457371705034,475.7533583197075,1863.6094133470801,570.5959064387393,1920,595.7343255288197L 1920 1080 L 0 1080 Z" fill="url(#SvgjsLinearGradient1004)"></path><path d="M0,92.41423294226911C63.572848550555705,104.25867769046222,257.5948285834641,127.36323136252375,381.4370913033342,163.48090143142775C505.27935402320435,199.59857150033176,615.8082785700631,249.8350959973805,743.0535763192208,309.12025335569314C870.2988740683786,368.40541071400577,1010.4708599282349,476.7452225452952,1144.9088777982809,519.1918455813035C1279.3468956683269,561.6384686173118,1420.4998298392102,533.0248317734869,1549.6816835394968,563.799991571743C1678.8635372397835,594.5751513699992,1858.2802805899162,680.5023355709909,1920,703.8428043708406L 1920 1080 L 0 1080 Z" fill="url(#SvgjsLinearGradient1005)"></path><path d="M0,200.13403377892607C74.49130949677104,222.7109313687436,282.92774236155435,288.399638084306,446.9478569806262,335.59541931783116C610.9679715996981,382.7912005513563,818.0258642310764,425.46023201778985,984.1206877144313,483.308721180077C1150.215511197786,541.1572103423641,1287.536912499827,625.5964212393646,1443.5167978807551,682.6863542915538C1599.4966832616833,739.776287343743,1840.586132980126,801.9879919596021,1920,825.8483194932119L 1920 1080 L 0 1080 Z" fill="url(#SvgjsLinearGradient1006)"></path></svg>