<svg height="300px" width="300px" fill="#333333" xmlns="http://www.w3.org/2000/svg" xmlns:xlink="http://www.w3.org/1999/xlink" version="1.1" x="0px" y="0px" viewBox="0 0 100 100" style="enable-background:new 0 0 100 100;" xml:space="preserve"><g><path d="M80.6376038,81.5703125L69.0902405,63.7226563c-0.7319336-1.1323242-1.8623047-1.9101563-3.1821289-2.1899414   c-0.7559814-0.1604004-1.5169678-0.1261597-2.244751,0.0546265c-0.0136108-0.0256348-0.0150757-0.0542603-0.0311279-0.0790405   l-3.4804688-5.378418c-0.0888062-0.1374512-0.210144-0.2354126-0.3428345-0.3120728   c5.1862793-4.6856079,8.1634521-11.4369507,8.0447998-18.505127c6.7793579-0.8899536,11.9630737-6.6766357,11.9630737-13.5914917   C79.816803,16.1552734,73.64151,10,66.051178,10c-4.5849609,0-8.8747559,2.3005371-11.4157715,6.0582886   c-2.640564-1.3574219-5.4684448-2.2128906-8.420166-2.5353394c-5.3955078-0.6157227-10.6918945,0.5634766-15.3032246,3.3994141   L30.7787151,17c-0.1567383,0.0913086-0.3100586,0.1806641-0.4702148,0.2836914   c-0.03125,0.0205078-0.0610352,0.0419922-0.0898438,0.0654297c-0.0087891,0.0073242-0.0175781,0.0141602-0.0258789,0.0214844   c-2.9345703,1.909668-5.3681641,4.3876953-7.2109375,7.3310547c-0.1049805,0.1513672-0.1958008,0.2963867-0.2880859,0.4448242   l-0.0913086,0.1459961c-1.890625,3.1958008-3.0405273,6.8374023-3.324707,10.5283203   c-0.2885742,3.6333008,0.2519531,7.3291016,1.5620117,10.6835938c0.6171875,1.5986328,1.3823242,3.1000977,2.2714844,4.4570313   c3.5302734,5.4672852,8.974123,9.2285156,15.3291035,10.5908203c1.7104492,0.3666992,3.4311523,0.5473633,5.1401367,0.5473633   c3.3778076,0,6.7043457-0.7167358,9.8045654-2.0996094c0.0177002,0.1461182,0.0592651,0.2904663,0.1446533,0.4223633   l3.5278931,5.4519653c-0.460022,0.5921021-0.7994995,1.2728271-0.9595337,2.0275269   c-0.2788086,1.3144531-0.0268555,2.6586914,0.7060547,3.7817383l11.5473633,17.859375   c0.144043,0.2231445,0.3710938,0.3793945,0.6308594,0.4350586C69.0516663,89.9926758,69.1214905,90,69.1913147,90   c0.1918945,0,0.3813477-0.0551758,0.5444336-0.1611328l10.6064453-6.8867188   C80.8050842,82.6518555,80.9369202,82.0332031,80.6376038,81.5703125z M66.051178,12   c6.487793,0,11.765625,5.2583008,11.765625,11.7211914c0,6.1835938-4.8510742,11.3232422-11.0258789,11.699707   c-1.5976563,0.0693359-3.1860352-0.125-4.684082-0.6557617c-4.6782227-1.6577148-7.8217773-6.0961914-7.8217773-11.0439453   c0-0.4257813,0.0273438-0.8686523,0.0849609-1.3603516c0.1289063-1.1731567,0.4491577-2.3378296,0.9381714-3.4246216   c0.1625977-0.3613281,0.343811-0.7138062,0.5427856-1.0548706c0.000061-0.0001221,0.000061-0.0001831,0.0001221-0.0003052   c0.0006714-0.0011597,0.0011597-0.0024414,0.0018311-0.0036011C57.9471741,14.2519531,61.8548889,12,66.051178,12z    M60.8319397,36.4189453c0.1186523,1.6630859,0.0039063,3.3203125-0.3427734,4.9360352   c-0.0004883,0.0004883-0.0004883,0.0009766-0.0004883,0.0014648c-0.9643555,4.5263672-3.6430664,8.4106445-7.5439453,10.9375   c-5.5644531,3.6123047-12.5654297,3.7514648-18.2670898,0.3647461c-2.3125-1.3823242-4.2260761-3.2314453-5.6923847-5.503418   c-0.6518555-0.9902344-1.1904297-2.0463867-1.6054688-3.1484375c-0.9404297-2.4179688-1.3300781-5.0571289-1.1264648-7.6342773   c0.203125-2.6318359,1.0234375-5.2275391,2.3486328-7.4697266l0.2817383-0.4326172   c1.3408203-2.137207,3.0859375-3.9091797,5.1718769-5.2558594l0.5092773-0.3154297   c2.7001953-1.6674805,5.7324219-2.5268555,8.8710938-2.5268555c0.6591797,0,1.3237305,0.0380859,1.9907227,0.1142578   c2.421875,0.2636719,4.8041992,1.0517578,6.8950195,2.2822266c-0.0019531,0.026001-0.0011597,0.0498047-0.0029297,0.0756836   c-0.020752,0.2995605-0.0336914,0.5921021-0.0336914,0.8769531c0,0.3555298,0.0145874,0.7086182,0.0418701,1.059021   c0.0090332,0.116272,0.0276489,0.2302856,0.0396118,0.3458862c0.0241699,0.2329102,0.046875,0.4661865,0.0827637,0.696167   c0.0214233,0.1369629,0.0524902,0.2710571,0.0779419,0.4068604c0.0384521,0.2051392,0.0744629,0.4110107,0.1220703,0.6133423   c0.0339355,0.1442261,0.0770264,0.2851563,0.1156006,0.4278564c0.0513916,0.1903076,0.1004639,0.3812866,0.1598511,0.5686646   c0.0457764,0.1444702,0.0999146,0.2853394,0.1503296,0.4279175c0.0640869,0.1809692,0.1263428,0.3626099,0.1977539,0.5403442   c0.057251,0.1425171,0.1220093,0.281189,0.1838989,0.4215088c0.0761719,0.1726685,0.1512451,0.3457031,0.234375,0.5148315   c0.0684204,0.1391602,0.1433716,0.2745361,0.2163696,0.4111938c0.0876465,0.1640625,0.1745605,0.3282471,0.2686768,0.4885254   c0.0795288,0.135437,0.164856,0.2669067,0.2489624,0.3995361c0.0984497,0.1552124,0.1966553,0.3102417,0.3012085,0.4614258   c0.0898438,0.1298218,0.1845093,0.2557983,0.2787476,0.3824463c0.1092529,0.1468506,0.218811,0.2932739,0.3338623,0.43573   c0.0997925,0.1235962,0.2036743,0.2435303,0.3077393,0.3636475c0.1191406,0.1375122,0.2390137,0.2739868,0.3635864,0.4068604   c0.1098633,0.1171875,0.2231445,0.230835,0.3371582,0.3441772c0.1283569,0.1276245,0.2579346,0.2537842,0.3914795,0.3764648   c0.1187744,0.1091919,0.2402954,0.2151489,0.3630981,0.3202515c0.1381226,0.1182861,0.2778931,0.234375,0.4209595,0.34729   c0.1268921,0.1002197,0.2559204,0.1975098,0.3865967,0.293396c0.1474609,0.1082153,0.2969971,0.213562,0.4491577,0.3161011   c0.1348877,0.0908813,0.2713013,0.1793823,0.40979,0.265625c0.1560669,0.09729,0.3145142,0.190918,0.4750366,0.2822266   c0.1420898,0.0808105,0.2851563,0.159729,0.430603,0.2356567c0.1652832,0.0863037,0.333252,0.1681519,0.5027466,0.2479858   c0.1480713,0.0697632,0.2965698,0.1382446,0.4478149,0.2029419C60.6946716,36.3549805,60.7613831,36.3901367,60.8319397,36.4189453   z M38.8597717,59.5966797c-5.8320313-1.2504883-10.8286152-4.7021484-14.0717793-9.7255859   c-0.8154297-1.2451172-1.5161133-2.6196289-2.0834961-4.090332c-1.2026367-3.0786133-1.6977539-6.4677734-1.4326172-9.8041992   c0.2607422-3.3896484,1.3164063-6.7319336,3.0375977-9.6420898l0.081543-0.1303711   c0.0756836-0.121582,0.1494141-0.2402344,0.2602539-0.402832c1.7280273-2.7578125,3.9848633-5.046875,6.7075195-6.8032227   c0.0380859-0.0244141,0.0742188-0.0517578,0.1083984-0.0805664c0.1064453-0.0664063,0.2104492-0.1264648,0.315918-0.1879883   l0.1591797-0.0927734c4.2441425-2.6098633,9.1035175-3.6904297,14.0512714-3.1259766   c2.6791992,0.2924805,5.2456055,1.0576172,7.6435547,2.2773438c-0.0299683,0.0620728-0.0529175,0.1273193-0.0819092,0.1898804   c-0.0621338,0.1339722-0.1175537,0.2701416-0.175293,0.406189c-0.1123657,0.2647705-0.2171021,0.5316162-0.312439,0.8029785   c-0.0512085,0.145813-0.100647,0.2911377-0.1468506,0.4385376c-0.0888672,0.2836304-0.1655273,0.5695801-0.2352905,0.8577881   c-0.0159912,0.0661621-0.0391235,0.1307983-0.0540771,0.1971436c-2.15979-1.151123-4.5488892-1.9173584-6.9829102-2.1820679   c-4.2866211-0.4897461-8.4814453,0.4423828-12.1357422,2.6992188l-0.5263672,0.3261719   c-2.349123,1.5170898-4.2993183,3.496582-5.7875996,5.8696289l-0.2954102,0.4545898   c-1.5029297,2.5405273-2.4169922,5.4350586-2.644043,8.3686523c-0.2270508,2.8740234,0.2075195,5.8183594,1.2524414,8.5048828   c0.4633789,1.2304688,1.0698242,2.4189453,1.7978516,3.5258789c1.6298828,2.5249023,3.7636719,4.5869141,6.3442402,6.1293945   c3.0678711,1.8217773,6.4707031,2.7290039,9.8691406,2.7290039c3.6503906,0,7.2954102-1.0478516,10.5097656-3.1337891   c4.3491211-2.8173828,7.3364258-7.1494141,8.4121094-12.1987305c0.331665-1.5457153,0.4692993-3.1252441,0.4190674-4.7126465   c0.0239258,0.0056763,0.0480957,0.0100098,0.0720215,0.015564c0.2420654,0.0560913,0.4837036,0.114563,0.7283936,0.1574707   c0.1516724,0.0265503,0.3052368,0.0410767,0.4578247,0.0625c0.2280884,0.0321045,0.4555054,0.0671387,0.6854248,0.0878296   c0.1595459,0.0143433,0.3204346,0.0171509,0.4807129,0.0259399c0.1934204,0.0106812,0.3859863,0.0287476,0.5803833,0.031311   c0.0961914,7.6401367-3.7514648,14.8754883-10.2001953,19.059082h0.0004883   C50.660553,59.746582,44.691803,60.8481445,38.8597717,59.5966797z M55.056366,59.1797485   c0.5760498-0.3114014,1.1447754-0.6413574,1.7003784-1.0015259c0,0,0,0,0.0004883,0   c0.5653687-0.3668213,1.1055298-0.762146,1.6334229-1.1705322c0.0254517,0.0704346,0.039917,0.1434937,0.0823975,0.2091064   l3.3683472,5.2051392l-3.2658691,2.1170654l-3.3671265-5.2035522   C55.1672668,59.2719727,55.1081848,59.2305908,55.056366,59.1797485z M69.4872131,87.6157227L58.4813538,70.5942383   c-0.4428711-0.6782227-0.5942383-1.4873047-0.4267578-2.2773438c0.1679688-0.7929688,0.6362305-1.4731445,1.2895508-1.8969727   c0.0097656-0.0058594,0.0805664-0.0483398,0.090332-0.0546875l3.7792969-2.4492188   c0.4975586-0.3251953,1.065918-0.4936523,1.6464844-0.4936523c0.2104492,0,0.4223633,0.0219727,0.6333008,0.0668945   c0.7954102,0.168457,1.4760742,0.637207,1.918457,1.3212891l11.0039063,17.0078125L69.4872131,87.6157227z"/><path d="M37.9837952,26.6635742c0.1303711,0,0.2631836-0.0258789,0.3911133-0.0800781   c0.3764648-0.1601563,0.7666016-0.3027344,1.1591797-0.4233398c0.527832-0.1625977,0.8242188-0.722168,0.6621094-1.25   c-0.1625977-0.5288086-0.7275391-0.8237305-1.25-0.6621094c-0.4584961,0.1411133-0.9140625,0.3076172-1.3544922,0.4946289   c-0.5078125,0.2163086-0.7446289,0.8037109-0.5288086,1.3120117C37.2250061,26.4350586,37.594635,26.6635742,37.9837952,26.6635742   z"/><path d="M43.0785217,49.8876953c-6.6611328,0-12.08008-5.440918-12.08008-12.1289063   c0-3.3769531,1.4189472-6.6274414,3.89258-8.9179688c0.4047852-0.3754883,0.4291992-1.0083008,0.0541992-1.4135742   c-0.3769531-0.4052734-1.0092773-0.4296875-1.4135742-0.0541992c-2.8808613,2.668457-4.533205,6.4536133-4.533205,10.3857422   c0,7.7905273,6.3164082,14.1289063,14.08008,14.1289063c0.5522461,0,1-0.4477539,1-1S43.6307678,49.8876953,43.0785217,49.8876953z   "/><path d="M66.051178,29.5966797c-0.2954102,0-0.5722656,0.0488281-0.7802734,0.1298828   c-1,0.3320313-1.6723633,1.2675781-1.6723633,2.3286133c0,1.3554688,1.1000977,2.4584961,2.4526367,2.4584961   c0.1738281,0,0.3491211-0.019043,0.5083008-0.0541992c1.1264648-0.2324219,1.9438477-1.2436523,1.9438477-2.4042969   C68.5033264,30.699707,67.4032288,29.5966797,66.051178,29.5966797z M66.1551819,32.5004883   c-0.0043945,0.0009766-0.0996094,0.012207-0.1040039,0.0131836c-0.2495117,0-0.4526367-0.2055664-0.4526367-0.4584961   c0-0.2006836,0.1186523-0.3691406,0.3457031-0.4458008c0.0058594-0.0019531,0.0366211-0.0126953,0.1069336-0.0126953   c0.2495117,0,0.4521484,0.2055664,0.4521484,0.4584961C66.5033264,32.2714844,66.356842,32.4589844,66.1551819,32.5004883z"/><path d="M62.6815491,16.9257813c0.0004883,0.0107422,0.0014648,0.0214844,0.0024414,0.03125l0.862793,8.637207l0.0517578,0.4790039   c0,1.3496094,1.1000977,2.4472656,2.4526367,2.4472656c1.3520508,0,2.4521484-1.0976563,2.4477539-2.3535156l0.9189453-9.2119141   c0.0009766-0.0087891,0.0019531-0.019043,0.0024414-0.0297852l0.0522461-0.449707   c0.0043945-0.0385742,0.0068359-0.0771484,0.0068359-0.1157227c0-0.3994141-0.0791016-0.8110352-0.2329102-1.2192383   c-0.3701172-0.9941406-1.199707-1.7675781-2.2026367-2.0639648c-0.3071289-0.0966797-0.6503906-0.1479492-0.9926758-0.1479492   c-1.890625,0-3.4287109,1.5390625-3.4287109,3.4311523c0,0.0385742,0.0024414,0.0771484,0.0068359,0.1157227L62.6815491,16.9257813   z M66.051178,14.9287109c0.1411133,0,0.2763672,0.019043,0.4082031,0.0605469   c0.4199219,0.1240234,0.7607422,0.4414063,0.9140625,0.8535156c0.0634766,0.1674805,0.0986328,0.3251953,0.1049805,0.4697266   l-0.9750977,9.7607422c0,0.2509766-0.1987305,0.4472656-0.4521484,0.4472656c-0.2539063,0-0.4526367-0.1962891-0.4575195-0.5449219   l-0.9145508-9.1293945c0-0.0385742-0.0024414-0.0771484-0.0068359-0.1157227l-0.0488281-0.4208984   C64.6498108,15.543457,65.2801819,14.9287109,66.051178,14.9287109z"/></g></svg>